<svg version="1.1" id="Layer_1" xmlns="http://www.w3.org/2000/svg" xmlns:xlink="http://www.w3.org/1999/xlink" x="0px" y="0px"
	 width="100%" viewBox="0 0 624 624" enable-background="new 0 0 624 624" xml:space="preserve">
<path fill="#000000" opacity="1.000000" stroke="none" 
	d="
M74.625656,255.735413 
	C76.963303,231.524017 83.332291,208.805298 92.939728,187.060562 
	C117.191162,132.171677 156.309280,91.270050 210.326569,65.175560 
	C252.458969,44.822376 297.035522,37.767982 343.574493,43.470837 
	C390.694061,49.244827 432.585785,67.327415 468.494324,98.198326 
	C514.491028,137.742172 543.779724,187.233932 552.324097,247.765656 
	C562.049194,316.662476 544.367493,378.420624 501.666626,433.158691 
	C494.179047,442.756989 485.845154,451.594330 477.201294,460.159637 
	C474.433411,462.902405 472.470001,463.348969 469.426758,460.269287 
	C463.840790,454.616272 457.760071,449.452148 451.262848,443.515137 
	C454.773315,440.185822 458.040314,437.193573 461.190765,434.083221 
	C495.199158,400.508087 516.250488,359.977753 522.307251,312.744995 
	C532.730408,231.461563 504.075104,165.152115 440.861145,113.969254 
	C399.695648,80.638512 351.699677,66.886040 299.038666,70.554092 
	C250.849625,73.910652 208.568832,92.154381 172.980606,124.829147 
	C133.654068,160.936203 110.295952,205.803070 104.623642,258.902679 
	C97.725189,323.480438 117.513107,379.801422 160.698898,428.049683 
	C164.692291,432.511261 169.030396,436.671844 173.322540,440.855133 
	C175.294601,442.777130 175.519333,444.163544 173.247681,446.118683 
	C167.948288,450.679657 162.651367,455.278320 157.745132,460.248383 
	C154.759079,463.273346 152.887100,462.380524 150.324799,459.904297 
	C135.037872,445.130646 121.629372,428.844513 110.284027,410.860687 
	C89.652222,378.156738 77.466583,342.563629 74.016441,304.051544 
	C72.587517,288.101288 72.561874,272.123596 74.625656,255.735413 
z"/>
<path fill="#000000" opacity="1.000000" stroke="none" 
	d="
M466.111572,334.249786 
	C470.463470,330.241333 471.232758,326.452820 468.187897,321.248810 
	C462.892578,312.198364 464.818756,307.759705 474.488831,304.199188 
	C476.521454,303.450775 478.564880,302.726440 480.569458,301.908020 
	C489.310211,298.339386 490.980835,292.547974 485.298615,285.167969 
	C478.492615,276.328461 471.393951,267.734161 465.531860,258.173492 
	C457.883026,245.698776 453.891663,232.921524 456.573059,217.865387 
	C460.759430,194.358978 453.034088,173.415970 439.571838,154.455536 
	C421.322693,128.753250 395.482208,113.804199 366.124054,104.437317 
	C337.232574,95.219330 307.858673,94.316261 278.341248,101.340546 
	C274.504456,102.253601 271.939240,101.405151 269.618500,98.502716 
	C266.726898,94.886345 263.272827,91.692856 261.265533,87.515045 
	C262.258575,85.274948 264.346161,85.329651 266.013245,84.925758 
	C311.504791,73.904427 355.930908,76.869125 397.967560,97.927696 
	C461.308472,129.658798 500.996552,180.839386 511.970581,250.765381 
	C523.205933,322.356293 501.653046,384.360077 447.295258,433.772064 
	C446.308838,434.668701 445.247498,435.501526 444.369049,436.494934 
	C441.804535,439.395050 439.131439,439.748505 435.507812,438.065369 
	C417.345825,429.629395 398.554504,428.648041 379.481323,434.412292 
	C365.603363,438.606445 354.507599,446.178223 349.923615,460.898163 
	C349.754425,461.441406 349.128235,461.842377 348.056305,463.054504 
	C345.489594,441.322235 353.643036,425.095367 370.154114,411.760773 
	C359.886169,405.322113 350.418396,398.939850 344.871918,388.508301 
	C346.577362,386.706543 347.915985,387.870819 349.220978,388.323273 
	C375.737427,397.516235 402.969055,402.413574 431.089203,401.983490 
	C435.931610,401.909424 440.735687,401.630066 445.345306,399.869873 
	C454.832489,396.247253 458.716309,388.132019 456.383362,376.536835 
	C455.627960,372.782562 454.681885,369.065643 453.970428,365.303772 
	C453.121063,360.812347 454.550964,357.102722 458.155579,354.249359 
	C460.723694,352.216461 464.245209,350.585083 463.380585,346.509979 
	C462.498627,342.353088 458.871002,341.065002 455.239685,340.044220 
	C454.156494,339.739746 453.094543,339.359711 451.140961,338.730042 
	C456.361389,336.251190 461.808075,337.680969 466.111572,334.249786 
z"/>
<path fill="#000000" opacity="1.000000" stroke="none" 
	d="
M350.640076,554.408447 
	C355.594330,564.890930 361.174377,574.684143 365.394501,585.878845 
	C354.795685,586.747742 345.021362,586.356506 335.261444,586.164490 
	C332.936066,586.118774 332.203003,583.892761 331.311829,582.094055 
	C326.432678,572.246704 321.413971,562.465759 316.711609,552.534912 
	C315.122833,549.179749 313.003235,548.017883 309.357361,548.050781 
	C292.035522,548.207214 274.710724,548.216064 257.389069,548.052856 
	C253.856857,548.019653 251.974167,549.275940 250.506226,552.401978 
	C245.836395,562.346741 240.815659,572.126709 236.145416,582.071289 
	C234.670364,585.212219 232.747208,586.524048 229.226303,586.411621 
	C222.238083,586.188599 215.236740,586.399048 208.241058,586.370972 
	C206.638000,586.364563 204.882721,586.819336 203.523254,585.365601 
	C202.825684,583.179871 204.230682,581.507446 205.063751,579.781616 
	C224.895142,538.697144 244.817123,497.656311 264.568848,456.533661 
	C266.355164,452.814606 268.580811,451.426910 272.653229,451.581085 
	C280.137543,451.864410 287.652710,451.883453 295.131989,451.527954 
	C299.077026,451.340485 301.100159,452.703156 302.787659,456.207245 
	C314.850250,481.255035 327.103271,506.211121 339.298279,531.195129 
	C343.021179,538.822266 346.751984,546.445496 350.640076,554.408447 
M276.193298,496.619049 
	C272.177124,504.910828 268.160950,513.202637 263.806427,522.192993 
	C277.485413,522.192993 290.091248,522.192993 303.411072,522.192993 
	C296.807129,508.619049 290.527313,495.711304 283.940704,482.173004 
	C280.284973,486.838409 278.996826,491.728912 276.193298,496.619049 
z"/>
<path fill="#000000" opacity="1.000000" stroke="none" 
	d="
M266.051025,204.744171 
	C275.698761,204.846619 281.371918,197.946564 278.682800,189.072205 
	C277.189423,184.143906 278.420532,181.510986 282.941711,179.817749 
	C283.862915,179.472748 284.663818,178.812119 285.530579,178.315231 
	C292.049072,174.578369 292.232147,174.445877 296.766327,180.616241 
	C299.049286,183.723022 301.437622,185.071075 305.171570,183.923508 
	C306.099609,183.638275 307.180634,183.597076 308.148834,183.737335 
	C314.587341,184.670120 319.438080,182.917007 321.916138,176.336731 
	C322.812164,173.957428 324.855896,173.365189 327.290894,174.412796 
	C328.510620,174.937546 329.809174,175.277374 331.067139,175.715057 
	C339.111450,178.513870 339.111023,178.515152 339.284882,187.028961 
	C339.408356,193.074921 345.307892,197.382355 351.274292,195.782730 
	C359.321472,193.625244 359.322388,193.624756 363.252960,201.247070 
	C363.710815,202.135040 364.031372,203.121902 364.620850,203.909241 
	C367.790558,208.143021 367.463074,211.777618 362.976135,214.857513 
	C362.303711,215.319046 361.794128,216.025513 361.233276,216.640656 
	C357.047516,221.231781 358.004791,225.984558 363.608643,228.461960 
	C372.268799,232.290543 372.399323,232.307510 371.235626,241.252914 
	C369.932922,251.267075 370.366333,249.934799 361.949860,250.617340 
	C355.636810,251.129303 354.888947,253.267502 358.280457,258.713287 
	C359.638000,260.893097 362.677887,263.099243 361.150787,265.696350 
	C358.727448,269.817627 355.264069,273.441376 351.084473,275.866302 
	C349.022034,277.062866 347.044617,274.629425 345.490845,273.338348 
	C341.641205,270.139557 338.107117,269.925323 333.733154,272.536896 
	C330.714294,274.339386 328.688843,276.141449 328.881317,279.799408 
	C329.153870,284.978455 326.572021,287.393829 321.493958,287.392365 
	C321.004028,287.392242 320.513062,287.566010 320.024231,287.666962 
	C311.537720,289.419647 311.537781,289.419891 307.840607,281.468475 
	C304.979004,275.314148 296.492096,273.417175 291.309509,277.636810 
	C289.061920,279.466827 287.254822,283.261719 284.126038,282.293060 
	C279.734863,280.933624 275.909760,277.893951 272.610413,274.617859 
	C270.803833,272.824036 272.396423,270.378082 273.238312,268.531433 
	C276.343903,261.719208 274.268677,258.073303 266.830170,260.060455 
	C261.840546,261.393402 258.375427,259.813721 257.495483,254.228088 
	C257.317627,253.099182 256.702576,252.042694 256.321075,250.941742 
	C253.766998,243.571075 253.769760,243.570053 260.267853,239.455460 
	C266.254791,235.664505 266.354584,231.695419 260.794250,226.969818 
	C258.467041,224.991959 254.463974,223.671707 254.815536,220.178604 
	C255.309418,215.271362 256.860199,210.384399 259.580200,206.125397 
	C260.965729,203.955948 263.502960,204.851807 266.051025,204.744171 
M287.083191,218.675537 
	C281.526825,231.691971 284.464722,243.732208 295.356659,252.582520 
	C304.121063,259.704071 316.330566,260.667450 326.210541,255.017044 
	C335.873138,249.490936 341.892212,238.274872 340.479645,228.427811 
	C338.691986,215.966064 329.594421,206.065063 317.689148,203.624619 
	C305.619293,201.150436 294.129608,206.621185 287.083191,218.675537 
M279.533508,200.037933 
	C277.384857,201.996689 275.512146,204.141357 276.627747,207.315613 
	C277.333527,209.323853 278.939362,210.529907 281.118439,210.648743 
	C284.247650,210.819382 286.503815,209.292480 287.937378,206.621445 
	C289.122711,204.412903 289.193756,202.144104 287.267303,200.258530 
	C285.104492,198.141617 282.671417,197.870117 279.533508,200.037933 
z"/>
<path fill="#000000" opacity="1.000000" stroke="none" 
	d="
M420.126221,570.994385 
	C420.122711,574.993042 420.074860,578.493591 420.130157,581.992371 
	C420.174774,584.817383 419.126801,586.344116 416.047546,586.308228 
	C408.715729,586.222900 401.381317,586.214417 394.049866,586.315979 
	C390.741150,586.361816 389.657471,584.749939 389.718903,581.700317 
	C389.806152,577.369080 389.731384,573.034668 389.731262,568.701599 
	C389.730255,531.703552 389.729828,494.705536 389.731049,457.707520 
	C389.731262,451.153290 389.735474,451.101715 396.446747,451.136658 
	C402.940521,451.170471 409.436676,451.488342 415.925903,451.366852 
	C419.867340,451.293060 420.130188,453.556000 420.123352,456.501678 
	C420.087708,471.834076 420.109802,487.166595 420.112640,502.499084 
	C420.116882,525.164551 420.121826,547.830017 420.126221,570.994385 
z"/>
<path fill="#000000" opacity="1.000000" stroke="none" 
	d="
M162.888397,364.489746 
	C164.102783,362.666107 163.734848,360.960205 163.829361,359.316864 
	C164.348450,350.292389 171.984070,345.157074 180.313675,348.673462 
	C184.354477,350.379272 188.249573,350.459991 192.454422,350.342377 
	C202.935471,350.049103 213.428345,350.031464 223.914185,350.134613 
	C227.611282,350.170990 230.402832,349.378387 233.118179,346.487183 
	C239.552521,339.636139 249.792130,338.293793 257.910217,342.608215 
	C265.351166,346.562744 269.555542,355.490570 268.086792,364.218170 
	C266.642670,372.799591 259.589172,379.475067 250.438675,380.920410 
	C241.395050,382.348877 232.470016,377.152496 228.830154,367.675507 
	C227.435455,364.044159 225.557709,362.952789 221.873581,363.028168 
	C211.721710,363.235870 201.562241,363.151215 191.406876,363.061127 
	C188.416046,363.034637 185.912140,363.394196 184.147812,366.275757 
	C182.583466,368.830688 179.806335,369.786346 176.975769,370.364288 
	C167.248383,372.350372 161.851791,379.112732 158.728607,387.774902 
	C156.708191,393.378387 152.465897,396.986298 146.913651,396.244324 
	C141.670532,395.543671 137.775223,390.695374 138.069107,385.236115 
	C138.373795,379.576050 142.531769,375.635559 148.776657,375.718567 
	C151.767731,375.758301 153.878220,374.796600 155.722992,372.657990 
	C158.004318,370.013336 160.342880,367.418030 162.888397,364.489746 
z"/>
<path fill="#000000" opacity="1.000000" stroke="none" 
	d="
M113.290375,317.369659 
	C111.146812,311.686707 111.680710,306.790222 116.158943,302.940918 
	C120.125526,299.531403 125.145981,299.686035 130.940399,303.237335 
	C132.578751,304.241455 134.193344,304.807831 136.087463,304.766785 
	C138.251587,304.719818 140.450836,304.996613 142.576813,304.706970 
	C152.767609,303.318542 161.608353,305.774567 168.931610,313.261963 
	C171.747299,316.140747 175.320663,316.972443 179.406982,316.932831 
	C197.225998,316.760193 215.048645,316.731995 232.867264,316.915344 
	C237.201202,316.959930 240.564102,315.606720 243.667557,312.780762 
	C250.436630,306.616852 257.294983,300.550568 264.150116,294.481964 
	C265.516724,293.272186 266.943695,292.085327 268.496399,291.140198 
	C272.048157,288.978271 275.691437,288.956787 278.387543,292.314636 
	C281.191742,295.807098 280.013611,299.279327 276.869354,301.999481 
	C268.941681,308.857788 260.609375,315.281525 253.032379,322.501892 
	C246.615906,328.616364 239.536774,330.483002 230.855408,330.238770 
	C212.049896,329.709717 193.219467,329.958618 174.400665,330.091431 
	C170.156570,330.121399 166.564331,329.174103 163.441742,326.286011 
	C161.979233,324.933319 160.177048,323.935852 158.775787,322.531036 
	C153.280853,317.022156 146.631760,315.574646 139.141129,316.394409 
	C136.081787,316.729279 133.507782,317.356689 131.095551,319.631226 
	C125.398148,325.003418 118.322067,324.064728 113.290375,317.369659 
z"/>
<path fill="#000000" opacity="1.000000" stroke="none" 
	d="
M223.548004,401.449036 
	C232.669998,401.313202 241.336609,400.939941 249.984924,401.192810 
	C260.226379,401.492249 267.995728,409.793671 268.177551,420.060730 
	C268.254242,424.390900 268.335754,428.727295 268.189880,433.053284 
	C268.028442,437.842468 264.934296,441.234924 261.104858,441.161652 
	C257.413971,441.090973 255.003296,438.012329 254.865402,432.982697 
	C254.760406,429.153931 254.990265,425.309998 254.755371,421.492249 
	C254.453232,416.581116 252.010788,414.230103 247.111801,414.185791 
	C235.118195,414.077271 223.120895,414.254395 211.130096,414.038208 
	C207.545441,413.973602 205.815521,416.174469 203.694794,418.279907 
	C192.736786,429.158875 174.859711,425.223114 169.912659,410.883698 
	C166.698486,401.567200 171.231033,390.464539 179.949966,386.296753 
	C189.909012,381.536194 201.889282,384.342255 206.204376,394.122955 
	C209.342819,401.236664 213.746216,402.275879 220.088348,401.569458 
	C221.077805,401.459259 222.085358,401.511597 223.548004,401.449036 
z"/>
<path fill="#000000" opacity="1.000000" stroke="none" 
	d="
M239.843750,179.992279 
	C242.956009,180.258514 245.667526,180.236710 248.227264,180.849258 
	C252.596725,181.894897 254.971649,184.912628 255.244003,189.427826 
	C255.481186,193.360062 253.730347,196.254791 250.112259,197.713272 
	C246.063065,199.345535 242.070908,199.166611 239.432312,195.215347 
	C237.646545,192.541183 235.321564,191.964783 232.576843,192.329605 
	C225.954590,193.209808 220.761475,190.641510 215.763855,186.509964 
	C210.264160,181.963333 204.185394,178.124283 198.495407,173.797485 
	C195.894867,171.819992 193.927765,171.713226 190.987595,173.565323 
	C182.627090,178.831894 173.823868,177.991913 166.994217,171.877029 
	C160.879150,166.401901 159.102753,157.728455 162.502792,149.946838 
	C165.958618,142.037552 173.756622,137.659729 182.771301,138.568054 
	C190.417908,139.338501 197.706024,145.492706 199.067902,153.298981 
	C199.834229,157.691650 201.962891,160.438171 205.415375,162.825119 
	C210.473587,166.322220 215.635040,169.766266 220.209335,173.842468 
	C225.819946,178.842133 232.017670,180.956497 239.843750,179.992279 
z"/>
<path fill="#000000" opacity="1.000000" stroke="none" 
	d="
M209.940247,298.037354 
	C196.630188,298.040466 183.806808,297.868652 170.992264,298.130096 
	C165.816025,298.235687 161.567734,296.939819 157.911057,293.279419 
	C156.036331,291.402771 153.722733,289.965881 151.837296,288.098236 
	C149.409744,285.693542 147.103180,284.886444 143.458664,285.812714 
	C137.044724,287.442841 131.005524,282.876251 129.450516,276.121613 
	C128.004669,269.841156 131.621048,263.530975 137.791580,261.567322 
	C144.472488,259.441254 150.738251,262.397369 153.226959,268.849548 
	C157.064026,278.797363 166.006592,284.912537 176.755554,284.915161 
	C187.743988,284.917816 198.733459,284.813477 209.720245,284.944031 
	C213.414658,284.987915 216.436981,284.138275 219.209656,281.519989 
	C224.651474,276.381226 230.395187,271.563721 235.937653,266.529236 
	C238.448898,264.248138 241.194916,262.951660 244.575165,263.907837 
	C249.681305,265.352203 251.076385,271.715302 246.840958,275.502899 
	C239.154037,282.377014 231.165939,288.913422 223.346756,295.640961 
	C219.474686,298.972443 214.838379,297.800659 209.940247,298.037354 
z"/>
<path fill="#000000" opacity="1.000000" stroke="none" 
	d="
M326.875580,429.396790 
	C324.750458,432.842041 321.966919,434.035706 318.558990,432.809204 
	C314.805603,431.458374 314.134430,428.115631 314.149811,424.635254 
	C314.277771,395.688995 314.531586,366.742981 314.544006,337.796783 
	C314.548340,327.740601 310.185425,320.137482 300.746674,315.742371 
	C296.591339,313.807465 295.158600,310.091522 295.927307,305.748260 
	C296.631836,301.767578 299.125366,299.171387 303.285187,298.714203 
	C307.937866,298.202911 312.006958,299.923370 313.116974,304.490143 
	C314.272980,309.246185 316.458557,313.122986 319.589203,316.601318 
	C325.930847,323.647369 327.986023,331.604828 327.775665,341.230103 
	C327.219666,366.673401 327.838104,392.141510 327.886078,417.599915 
	C327.893250,421.406250 327.345367,425.213684 326.875580,429.396790 
z"/>
<path fill="#000000" opacity="1.000000" stroke="none" 
	d="
M205.136230,245.436066 
	C183.219315,246.074203 161.768753,245.835724 140.319702,245.442245 
	C137.811127,245.396255 135.924911,246.274261 133.998062,247.801514 
	C129.143097,251.649567 123.715431,251.678909 119.927612,248.151062 
	C116.079109,244.566681 115.383675,237.788269 118.421768,233.473206 
	C121.460014,229.157883 127.707260,227.615509 132.703964,230.529953 
	C135.909531,232.399673 139.101791,232.922272 142.665695,232.908356 
	C165.633331,232.818695 188.601379,232.799637 211.569199,232.826080 
	C214.496872,232.829453 216.906097,232.256271 219.312668,230.272186 
	C224.745728,225.792892 231.651718,226.335205 235.921936,231.109131 
	C240.198059,235.889709 240.236603,242.446106 236.014954,246.945877 
	C231.521927,251.734894 224.573669,252.470291 219.407532,248.017105 
	C215.104980,244.308319 210.264313,245.893707 205.136230,245.436066 
z"/>
<path fill="#000000" opacity="1.000000" stroke="none" 
	d="
M297.784973,341.785828 
	C297.889069,372.323547 297.935944,402.438904 297.937531,432.554291 
	C297.937592,434.028900 297.750244,435.572754 297.288239,436.964203 
	C296.208801,440.215149 293.838898,441.643951 290.383148,441.453430 
	C286.874695,441.260071 285.471222,438.951691 284.861206,436.008881 
	C284.528900,434.406006 284.674469,432.695587 284.674103,431.033691 
	C284.668243,403.413208 284.645691,375.792633 284.713226,348.172302 
	C284.721161,344.919830 284.145416,341.933838 282.662415,339.048584 
	C281.545898,336.876312 280.195862,335.496521 277.576324,334.859100 
	C271.911499,333.480774 269.164459,329.214447 269.790436,323.782196 
	C270.335358,319.053162 274.051941,315.661804 278.901459,315.468414 
	C284.633331,315.239838 288.228271,317.965240 289.384064,323.896332 
	C290.665985,330.474731 295.826904,335.124207 297.784973,341.785828 
z"/>
<path fill="#000000" opacity="1.000000" stroke="none" 
	d="
M216.569916,198.739532 
	C221.250885,199.353577 224.683182,201.099091 224.096130,205.991409 
	C223.509033,210.883911 219.673233,211.526154 215.483215,211.480026 
	C205.667343,211.371994 195.846771,211.568909 186.033997,211.362076 
	C182.237000,211.282059 179.693756,212.311707 177.183899,215.450104 
	C170.042770,224.379608 158.849731,225.457962 150.125366,218.604324 
	C142.829315,212.872772 141.714417,201.495651 147.648712,193.331314 
	C154.831436,183.449402 170.361298,183.691544 177.645477,194.232727 
	C180.103546,197.789917 182.623703,198.834991 186.640045,198.745895 
	C196.461731,198.528030 206.292084,198.700745 216.569916,198.739532 
z"/>
<path fill="#000000" opacity="1.000000" stroke="none" 
	d="
M232.639542,154.429352 
	C226.879990,149.332169 221.351257,144.518188 215.915543,139.601379 
	C213.913391,137.790359 211.913147,137.209885 209.125366,137.614334 
	C202.758255,138.538055 196.704041,133.793381 195.755753,127.622063 
	C194.598602,120.091461 198.684555,114.216881 205.946640,112.970070 
	C212.659470,111.817566 218.951309,115.824852 219.834717,122.679863 
	C220.336472,126.573273 221.885773,129.085068 224.906433,131.196106 
	C226.946991,132.622208 228.951065,134.185806 230.663391,135.981659 
	C238.365631,144.059586 247.047882,149.000214 258.876404,147.293488 
	C263.927032,146.564743 275.685913,157.430557 276.647064,162.420319 
	C277.109192,164.819412 276.184235,166.746811 274.385590,168.135468 
	C272.317230,169.732346 269.891937,170.467789 267.385986,169.183319 
	C266.073822,168.510757 264.653076,167.671738 263.812469,166.520187 
	C259.148529,160.130981 252.783249,158.431274 245.333191,159.392715 
	C240.356461,160.034943 236.110107,158.717148 232.639542,154.429352 
z"/>
<path fill="#000000" opacity="1.000000" stroke="none" 
	d="
M307.249512,151.067596 
	C305.046967,158.754410 299.484161,160.278442 294.275696,154.933380 
	C292.072357,152.672241 290.064789,150.213898 288.047272,147.779694 
	C285.323822,144.493744 282.508301,141.697006 277.628662,142.173798 
	C275.375244,142.393951 273.753723,140.470886 272.214111,138.935013 
	C266.555847,133.290558 260.787750,127.748817 255.312012,121.932121 
	C252.834732,119.300598 250.371399,118.070992 246.623260,118.332062 
	C240.674469,118.746422 235.981583,115.331627 234.252655,110.186684 
	C232.485565,104.928192 234.274063,98.795082 238.441345,95.822891 
	C243.269852,92.379074 249.156845,92.327309 253.856766,95.563637 
	C257.525940,98.090195 258.600647,101.914055 258.966858,105.944023 
	C259.179993,108.289452 260.015350,109.925224 261.735962,111.495132 
	C266.162231,115.533714 270.440765,119.736511 274.720551,123.932625 
	C278.203339,127.347328 281.628754,130.743378 287.104736,130.364853 
	C288.048126,130.299637 289.291473,130.531250 289.957489,131.121140 
	C296.510773,136.925797 303.519836,142.352493 307.249512,151.067596 
z"/>
<path fill="#000000" opacity="1.000000" stroke="none" 
	d="
M383.716370,146.426147 
	C378.946625,152.651627 374.538147,153.954391 367.433136,151.510056 
	C366.187683,151.081573 364.843689,150.234863 363.624878,151.104675 
	C358.445648,154.800812 351.368164,155.603867 347.760468,161.741226 
	C346.318146,164.194870 343.961121,165.457840 340.957428,164.698898 
	C338.590210,164.100769 337.334290,162.384064 336.925262,160.110977 
	C336.396240,157.171234 337.550110,154.794083 340.103882,153.366364 
	C345.320984,150.449661 350.617859,147.673294 355.916931,144.906342 
	C359.366699,143.105011 362.097076,141.115814 363.272217,136.839935 
	C364.740753,131.496536 371.280884,129.027359 376.823212,130.869675 
	C383.255157,133.007706 386.001068,138.909790 383.716370,146.426147 
z"/>
<path fill="#000000" opacity="1.000000" stroke="none" 
	d="
M343.266541,314.432831 
	C346.130249,311.922913 347.079407,309.146423 346.830322,305.724457 
	C346.626007,302.917664 346.664307,300.052643 346.989838,297.259430 
	C347.307465,294.534271 348.969299,292.641785 351.894989,292.483978 
	C354.896240,292.322052 357.068665,293.673584 357.853546,296.679932 
	C358.183502,297.943787 358.272186,299.310883 358.233063,300.623962 
	C358.069611,306.110565 357.982544,311.127289 362.787964,315.553589 
	C366.778473,319.229309 365.801605,326.204620 362.184021,330.177094 
	C358.535431,334.183502 351.798920,335.425079 347.018738,332.972046 
	C342.512054,330.659393 339.814697,324.603394 341.107361,319.310394 
	C341.494263,317.726288 342.375336,316.262848 343.266541,314.432831 
z"/>
<path fill="#000000" opacity="1.000000" stroke="none" 
	d="
M439.103271,242.201447 
	C436.341614,247.100204 426.851685,250.151688 420.092865,247.915161 
	C412.103577,245.271469 404.357422,241.893021 396.645660,238.887543 
	C396.645660,238.224564 396.522797,237.706299 396.663208,237.620880 
	C405.344543,232.339783 414.387726,227.934921 424.715942,227.146988 
	C428.053772,226.892349 431.294037,227.869156 434.339722,229.297485 
	C437.184631,230.631622 439.662567,232.028259 438.174164,236.047592 
	C437.492126,237.889481 438.237946,239.982681 439.103271,242.201447 
z"/>
<path fill="#000000" opacity="1.000000" stroke="none" 
	d="
M221.927094,434.888245 
	C220.269836,436.529236 220.918808,438.182770 220.954514,439.824982 
	C221.084900,445.817902 216.737793,450.228271 210.745636,450.360779 
	C204.773697,450.492828 200.978058,447.015930 200.648453,441.111481 
	C200.271774,434.363861 203.494583,429.544037 209.690613,429.992004 
	C215.978058,430.446503 219.649994,427.608826 223.172562,423.414459 
	C223.914154,422.531525 224.781967,421.721344 225.707306,421.033203 
	C227.371262,419.795898 229.174698,419.724792 230.679703,421.219849 
	C232.266068,422.795624 231.936646,424.607544 230.530823,426.102722 
	C227.803665,429.003235 224.958069,431.792358 221.927094,434.888245 
z"/>
<path fill="#000000" opacity="1.000000" stroke="none" 
	d="
M395.658508,207.043579 
	C389.153534,208.732498 384.558441,207.474030 381.590332,203.124191 
	C378.689362,198.872726 378.667847,194.424133 381.444611,190.059418 
	C384.053375,185.958740 389.047028,183.958038 394.017914,184.926102 
	C398.616760,185.821716 402.474213,189.688004 403.062866,194.389465 
	C403.791443,200.208099 401.080322,204.254868 395.658508,207.043579 
z"/>
<path fill="#000000" opacity="1.000000" stroke="none" 
	d="
M143.381104,331.276062 
	C144.720291,330.001099 145.694885,328.747681 146.975952,328.109497 
	C148.565704,327.317566 150.285934,327.703552 151.477341,329.176971 
	C152.599319,330.564514 152.243011,332.042908 151.253113,333.306183 
	C150.333435,334.479858 149.300827,335.595856 148.173859,336.570709 
	C144.470047,339.774628 142.338806,343.148163 143.338165,348.642944 
	C144.348160,354.196198 139.822418,358.869507 134.512650,359.268311 
	C129.222031,359.665680 124.538124,356.022675 123.754601,350.901031 
	C122.914070,345.406738 126.231857,339.431610 131.434555,339.355927 
	C137.520081,339.267456 140.219788,335.601105 143.381104,331.276062 
z"/>
<path fill="#000000" opacity="1.000000" stroke="none" 
	d="
M445.118927,215.371521 
	C443.137421,216.330261 441.505005,216.023697 439.876831,215.612106 
	C427.774475,212.552719 415.846832,213.192657 404.047729,217.196823 
	C403.097473,217.519302 401.897491,218.394272 400.614288,216.671539 
	C404.741180,212.764603 410.021698,210.814880 414.983643,208.431427 
	C423.250244,204.460556 432.010742,202.813721 441.173096,203.813507 
	C444.082611,204.130981 446.747894,205.129730 447.859009,208.226654 
	C448.900543,211.129730 447.921753,213.424057 445.118927,215.371521 
z"/>
<path fill="#000000" opacity="1.000000" stroke="none" 
	d="
M373.567169,168.419067 
	C377.672760,166.603378 380.877472,164.852463 382.625244,160.390045 
	C384.247131,156.249069 390.563782,155.535156 394.405945,158.093750 
	C398.126282,160.571228 399.229218,165.644638 396.896179,169.548401 
	C394.455078,173.632889 389.343719,174.937424 385.192413,172.453461 
	C384.068909,171.781235 383.102814,170.845917 381.952423,169.943451 
	C376.290344,171.826920 373.717529,177.593170 369.195770,181.217758 
	C366.729309,175.655380 367.731262,172.931534 373.567169,168.419067 
z"/>
<path fill="#000000" opacity="1.000000" stroke="none" 
	d="
M341.992310,130.411407 
	C338.161469,127.900085 336.912445,124.685081 338.177490,120.724205 
	C339.191803,117.548363 341.611664,115.945702 344.919647,115.699089 
	C348.496185,115.432457 351.011871,117.072281 352.556702,120.187103 
	C353.940491,122.977234 353.546783,125.704659 351.699493,128.159164 
	C349.254700,131.407501 346.023804,131.900604 341.992310,130.411407 
z"/>
<path fill="#000000" opacity="1.000000" stroke="none" 
	d="
M309.190247,122.768997 
	C304.392395,121.979424 302.001190,119.279716 302.037018,114.891434 
	C302.067474,111.157745 304.264679,108.722435 307.926361,107.875816 
	C311.949158,106.945717 316.126404,109.696732 316.980621,113.690369 
	C317.923431,118.097977 315.029694,121.661079 309.190247,122.768997 
z"/>
<path fill="#000000" opacity="1.000000" stroke="none" 
	d="
M414.556030,148.928162 
	C415.822876,152.704529 415.790192,156.056931 412.729279,158.366531 
	C409.633301,160.702606 406.210907,160.802521 403.113464,158.119400 
	C400.360748,155.734848 399.783722,150.906677 402.034821,148.110291 
	C404.521393,145.021393 407.740417,144.120926 411.367615,146.013977 
	C412.498932,146.604401 413.363281,147.706345 414.556030,148.928162 
z"/>
<path fill="#000000" opacity="1.000000" stroke="none" 
	d="
M196.191498,271.717133 
	C191.312485,269.391754 189.686356,266.252930 191.392487,262.740021 
	C193.149506,259.122406 196.135162,258.279907 199.692322,259.785553 
	C202.222443,260.856476 203.448303,263.014923 203.179184,265.771393 
	C202.795624,269.700073 200.378708,271.546783 196.191498,271.717133 
z"/>
<path fill="#000000" opacity="1.000000" stroke="none" 
	d="
M328.567139,222.863708 
	C331.960785,232.453308 329.829346,240.771667 323.045074,245.496872 
	C316.477386,250.071228 306.660645,249.631729 300.739197,244.500168 
	C294.799591,239.352859 293.344818,232.771210 295.272888,225.502853 
	C297.237244,218.097687 302.724945,214.041046 310.024109,213.183350 
	C317.925110,212.254959 324.313629,215.367081 328.567139,222.863708 
z"/>
</svg>